<svg width="66" height="79" viewBox="0 0 66 79" fill="none" xmlns="http://www.w3.org/2000/svg">
<path fill-rule="evenodd" clip-rule="evenodd" d="M53.7086 2.39999C53.3473 1.70251 52.8012 1.11776 52.13 0.709617C51.4589 0.301474 50.6884 0.0856449 49.9029 0.0857086H35.7143C34.5777 0.0857086 33.4876 0.537238 32.6839 1.34097C31.8802 2.14469 31.4286 3.23478 31.4286 4.37142C31.4286 5.50806 31.8802 6.59815 32.6839 7.40188C33.4876 8.20561 34.5777 8.65714 35.7143 8.65714H41.6172L31.3315 23.1714C30.8764 23.8128 30.6066 24.5671 30.5515 25.3516C30.4965 26.1361 30.6584 26.9207 31.0196 27.6193C31.3807 28.318 31.9271 28.9038 32.5989 29.3126C33.2708 29.7214 34.0422 29.9375 34.8286 29.9371H50.7886C51.9253 29.9371 53.0154 29.4856 53.8191 28.6819C54.6228 27.8782 55.0743 26.7881 55.0743 25.6514C55.0743 24.5148 54.6228 23.4247 53.8191 22.621C53.0154 21.8172 51.9253 21.3657 50.7886 21.3657H43.1143L53.4001 6.85142C53.8553 6.20932 54.1249 5.45426 54.1794 4.66903C54.2338 3.88381 54.0709 3.09876 53.7086 2.39999ZM24.7486 22.1886C24.3868 21.4902 23.8399 20.9049 23.1676 20.4967C22.4953 20.0885 21.7237 19.8732 20.9372 19.8743H5.78863C4.65199 19.8743 3.5619 20.3258 2.75817 21.1295C1.95444 21.9333 1.50291 23.0233 1.50291 24.16C1.50291 25.2966 1.95444 26.3867 2.75817 27.1904C3.5619 27.9942 4.65199 28.4457 5.78863 28.4457H12.6515L1.34291 44.4114C0.889127 45.0532 0.620574 45.8074 0.566627 46.5916C0.512679 47.3757 0.675416 48.1596 1.03704 48.8575C1.39866 49.5553 1.94523 50.1403 2.61698 50.5484C3.28873 50.9566 4.05977 51.1721 4.84577 51.1714H21.8915C23.0281 51.1714 24.1182 50.7199 24.9219 49.9162C25.7257 49.1124 26.1772 48.0224 26.1772 46.8857C26.1772 45.7491 25.7257 44.659 24.9219 43.8552C24.1182 43.0515 23.0281 42.6 21.8915 42.6H13.1258L24.4401 26.6343C24.8942 25.9928 25.1632 25.2388 25.2176 24.4547C25.272 23.6706 25.1098 22.8866 24.7486 22.1886ZM59.6515 38.7828C60.4379 38.7825 61.2093 38.9986 61.8812 39.4074C62.553 39.8162 63.0994 40.402 63.4605 41.1007C63.8217 41.7993 63.9836 42.5838 63.9286 43.3684C63.8735 44.1529 63.6037 44.9072 63.1486 45.5486L46.0058 69.7486H60.9429C62.0796 69.7486 63.1696 70.2001 63.9734 71.0038C64.7771 71.8075 65.2286 72.8976 65.2286 74.0343C65.2286 75.1709 64.7771 76.261 63.9734 77.0647C63.1696 77.8685 62.0796 78.32 60.9429 78.32H37.7201C36.9336 78.3203 36.1622 78.1043 35.4904 77.6954C34.8185 77.2866 34.2721 76.7008 33.911 76.0022C33.5499 75.3035 33.388 74.519 33.443 73.7345C33.498 72.9499 33.7678 72.1957 34.2229 71.5543L51.3658 47.3543H39.0115C37.8748 47.3543 36.7848 46.9028 35.981 46.099C35.1773 45.2953 34.7258 44.2052 34.7258 43.0686C34.7258 41.9319 35.1773 40.8418 35.981 40.0381C36.7848 39.2344 37.8748 38.7828 39.0115 38.7828H59.6515Z" fill="#9D1945"/>
</svg>
