<svg width="60" height="54" viewBox="0 0 60 54" fill="none" xmlns="http://www.w3.org/2000/svg">
<g clip-path="url(#clip0_4050_2)">
<path d="M19.5824 31.0055C24.0887 31.0055 27.7418 27.3524 27.7418 22.8462C27.7418 18.3399 24.0887 14.6868 19.5824 14.6868C15.0762 14.6868 11.4231 18.3399 11.4231 22.8462C11.4231 27.3524 15.0762 31.0055 19.5824 31.0055Z" stroke="#9D1945" stroke-width="5"/>
<path d="M20.7693 41.8352C21.5107 41.8571 21.5107 41.8568 21.5107 41.8568L21.5107 41.8559C21.5108 41.855 21.5108 41.8542 21.5108 41.8527C21.5109 41.85 21.511 41.8458 21.5112 41.8402C21.5115 41.8292 21.512 41.8126 21.5126 41.791C21.5139 41.7473 21.5157 41.6824 21.5181 41.5972C21.5228 41.4269 21.5297 41.175 21.5381 40.8492C21.5551 40.1971 21.5786 39.2482 21.6047 38.0602C21.6569 35.6839 21.7196 32.3499 21.7613 28.5186C21.8448 20.8593 21.845 11.2008 21.5104 3.2326L20.0282 3.29485C20.3611 11.223 20.3613 20.8501 20.2779 28.5025C20.2362 32.327 20.1737 35.6554 20.1216 38.0276C20.0955 39.2135 20.0721 40.1603 20.0551 40.8103C20.0467 41.1355 20.0398 41.3865 20.0351 41.556C20.0328 41.6408 20.0309 41.7052 20.0297 41.7485C20.0291 41.7699 20.0286 41.7862 20.0283 41.7972C20.0281 41.8025 20.028 41.8067 20.028 41.8093C20.0279 41.8108 20.0279 41.8117 20.0279 41.8123L20.0278 41.8132L20.7693 41.8352Z" fill="#9D1945"/>
<path d="M0.296715 22.5494C0.253114 23.2899 0.253446 23.2899 0.253446 23.2899L0.254295 23.29C0.255034 23.29 0.256117 23.2901 0.257542 23.2902C0.260394 23.2903 0.264615 23.2906 0.270193 23.2909C0.281349 23.2916 0.297932 23.2925 0.319825 23.2938C0.363616 23.2963 0.428659 23.3 0.514056 23.3047C0.684851 23.3142 0.937069 23.328 1.26352 23.345C1.9164 23.379 2.86626 23.426 4.05553 23.4782C6.43393 23.5827 9.77066 23.7081 13.6052 23.7917C21.268 23.9588 30.9423 23.9595 38.9302 23.2886L38.8061 21.8103C30.8978 22.4745 21.2863 22.4753 13.6375 22.3086C9.81617 22.2252 6.4906 22.1003 4.12066 21.9962C2.93575 21.9441 1.98991 21.8973 1.34066 21.8635C1.01603 21.8466 0.765566 21.8329 0.596442 21.8235C0.511881 21.8188 0.447657 21.8152 0.404671 21.8127C0.383174 21.8115 0.366992 21.8105 0.356228 21.8099C0.350846 21.8096 0.346819 21.8093 0.344164 21.8092C0.342835 21.8091 0.34185 21.809 0.341209 21.809L0.340503 21.809C0.340503 21.809 0.340316 21.809 0.296715 22.5494Z" fill="#9D1945"/>
<path d="M49.1976 41.3848C50.6799 40.7234 52.162 39.8401 53.447 38.9838C53.4372 38.996 53.4274 39.0079 53.4176 39.02C53.0536 39.4713 52.6901 39.9211 52.3255 40.3543C50.8686 42.0841 49.3676 43.578 47.5613 44.1886C45.8757 44.7583 43.8317 43.8566 42.1447 42.0897C40.4736 40.3398 39.2969 37.8774 39.3135 35.6471C39.3174 35.1053 39.4675 34.1437 39.7538 32.8436C40.0375 31.5553 40.4475 29.9667 40.9555 28.189C41.9714 24.6335 43.3742 20.3343 44.9295 16.1844C46.4857 12.0314 48.1888 8.04255 49.8032 5.10065C50.6114 3.62764 51.3873 2.43575 52.1006 1.61931C52.4035 1.27264 52.6868 1.00315 52.9479 0.809753C45.4333 16.9417 41.996 27.133 41.0638 33.3652C40.5893 36.5381 40.7525 38.7533 41.4198 40.2128C41.7578 40.9519 42.2263 41.4999 42.8034 41.8708C43.3787 42.2399 44.0364 42.417 44.7313 42.4553C46.1068 42.5306 47.6761 42.0636 49.1976 41.3848ZM55.623 39.5841C55.3806 38.8399 55.5031 38.0644 55.8921 37.4514C55.9411 37.3971 55.9903 37.3434 56.0396 37.2903C56.0547 38.0062 56.1431 38.7853 56.3283 39.3544C56.4915 39.8556 56.8828 40.3039 57.2777 40.6783C57.5964 40.9804 57.9598 41.272 58.2824 41.5304C58.3657 41.5975 58.4467 41.6622 58.523 41.7245C58.7141 41.8797 58.8787 42.0185 59.0087 42.1434C59.0852 42.2167 59.1413 42.2772 59.1811 42.3262C59.1772 42.3274 59.1734 42.3289 59.1692 42.3301C58.6099 42.5122 57.8714 42.263 57.1407 41.6672C56.4253 41.0842 55.8455 40.2677 55.623 39.5841Z" fill="#9D1945" stroke="#9D1945" stroke-width="3"/>
<path d="M33.3791 54C34.6081 54 35.6044 53.0037 35.6044 51.7747C35.6044 50.5457 34.6081 49.5494 33.3791 49.5494C32.1501 49.5494 31.1538 50.5457 31.1538 51.7747C31.1538 53.0037 32.1501 54 33.3791 54Z" fill="#9D1945"/>
<path d="M33.3791 54C34.6081 54 35.6044 53.0037 35.6044 51.7747C35.6044 50.5457 34.6081 49.5494 33.3791 49.5494C32.1501 49.5494 31.1538 50.5457 31.1538 51.7747C31.1538 53.0037 32.1501 54 33.3791 54Z" fill="#9D1945"/>
<path d="M33.3791 54C34.6081 54 35.6044 53.0037 35.6044 51.7747C35.6044 50.5457 34.6081 49.5494 33.3791 49.5494C32.1501 49.5494 31.1538 50.5457 31.1538 51.7747C31.1538 53.0037 32.1501 54 33.3791 54Z" fill="#9D1945"/>
<path d="M33.3791 54C34.6081 54 35.6044 53.0037 35.6044 51.7747C35.6044 50.5457 34.6081 49.5494 33.3791 49.5494C32.1501 49.5494 31.1538 50.5457 31.1538 51.7747C31.1538 53.0037 32.1501 54 33.3791 54Z" fill="#9D1945"/>
<path d="M15.577 54C16.8059 54 17.8022 53.0037 17.8022 51.7747C17.8022 50.5457 16.8059 49.5494 15.577 49.5494C14.348 49.5494 13.3517 50.5457 13.3517 51.7747C13.3517 53.0037 14.348 54 15.577 54Z" fill="#9D1945"/>
<path d="M15.577 54C16.8059 54 17.8022 53.0037 17.8022 51.7747C17.8022 50.5457 16.8059 49.5494 15.577 49.5494C14.348 49.5494 13.3517 50.5457 13.3517 51.7747C13.3517 53.0037 14.348 54 15.577 54Z" fill="#9D1945"/>
<path d="M15.577 54C16.8059 54 17.8022 53.0037 17.8022 51.7747C17.8022 50.5457 16.8059 49.5494 15.577 49.5494C14.348 49.5494 13.3517 50.5457 13.3517 51.7747C13.3517 53.0037 14.348 54 15.577 54Z" fill="#9D1945"/>
<path d="M15.577 54C16.8059 54 17.8022 53.0037 17.8022 51.7747C17.8022 50.5457 16.8059 49.5494 15.577 49.5494C14.348 49.5494 13.3517 50.5457 13.3517 51.7747C13.3517 53.0037 14.348 54 15.577 54Z" fill="#9D1945"/>
<path d="M51.4781 54C52.7071 54 53.7034 53.0037 53.7034 51.7747C53.7034 50.5457 52.7071 49.5494 51.4781 49.5494C50.2491 49.5494 49.2528 50.5457 49.2528 51.7747C49.2528 53.0037 50.2491 54 51.4781 54Z" fill="#9D1945"/>
<path d="M51.4781 54C52.7071 54 53.7034 53.0037 53.7034 51.7747C53.7034 50.5457 52.7071 49.5494 51.4781 49.5494C50.2491 49.5494 49.2528 50.5457 49.2528 51.7747C49.2528 53.0037 50.2491 54 51.4781 54Z" fill="#9D1945"/>
<path d="M51.4781 54C52.7071 54 53.7034 53.0037 53.7034 51.7747C53.7034 50.5457 52.7071 49.5494 51.4781 49.5494C50.2491 49.5494 49.2528 50.5457 49.2528 51.7747C49.2528 53.0037 50.2491 54 51.4781 54Z" fill="#9D1945"/>
<path d="M51.4781 54C52.7071 54 53.7034 53.0037 53.7034 51.7747C53.7034 50.5457 52.7071 49.5494 51.4781 49.5494C50.2491 49.5494 49.2528 50.5457 49.2528 51.7747C49.2528 53.0037 50.2491 54 51.4781 54Z" fill="#9D1945"/>
</g>
<defs>
<clipPath id="clip0_4050_2">
<rect width="59.9341" height="54" fill="white"/>
</clipPath>
</defs>
</svg>
