<svg width="40" height="40" viewBox="0 0 40 40" fill="none" xmlns="http://www.w3.org/2000/svg">
<mask id="mask0_4052_46" style="mask-type:alpha" maskUnits="userSpaceOnUse" x="0" y="0" width="40" height="40">
<rect width="40" height="40" fill="#D9D9D9"/>
</mask>
<g mask="url(#mask0_4052_46)">
<path d="M6.66671 33.3333C5.75004 33.3333 4.96532 33.0069 4.31254 32.3542C3.65976 31.7014 3.33337 30.9167 3.33337 30V10C3.33337 9.08333 3.65976 8.29861 4.31254 7.64583C4.96532 6.99305 5.75004 6.66666 6.66671 6.66666H33.3334C34.25 6.66666 35.0348 6.99305 35.6875 7.64583C36.3403 8.29861 36.6667 9.08333 36.6667 10V30C36.6667 30.9167 36.3403 31.7014 35.6875 32.3542C35.0348 33.0069 34.25 33.3333 33.3334 33.3333H6.66671ZM20 21.6667L6.66671 13.3333V30H33.3334V13.3333L20 21.6667ZM20 18.3333L33.3334 10H6.66671L20 18.3333ZM6.66671 13.3333V10V30V13.3333Z" fill="#9D1945"/>
</g>
</svg>
