<svg width="80" height="80" viewBox="0 0 80 80" fill="none" xmlns="http://www.w3.org/2000/svg">
<mask id="mask0_4052_31" style="mask-type:alpha" maskUnits="userSpaceOnUse" x="0" y="0" width="80" height="80">
<rect width="80" height="80" fill="#D9D9D9"/>
</mask>
<g mask="url(#mask0_4052_31)">
<path d="M30 70H16.6667C14.8333 70 13.2639 69.3472 11.9583 68.0417C10.6528 66.7361 10 65.1667 10 63.3333V40C10 35.8333 10.7917 31.9306 12.375 28.2917C13.9583 24.6528 16.0972 21.4861 18.7917 18.7917C21.4861 16.0972 24.6528 13.9583 28.2917 12.375C31.9306 10.7917 35.8333 10 40 10C44.1667 10 48.0694 10.7917 51.7083 12.375C55.3472 13.9583 58.5139 16.0972 61.2083 18.7917C63.9028 21.4861 66.0417 24.6528 67.625 28.2917C69.2083 31.9306 70 35.8333 70 40V63.3333C70 65.1667 69.3472 66.7361 68.0417 68.0417C66.7361 69.3472 65.1667 70 63.3333 70H50V43.3333H63.3333V40C63.3333 33.5 61.0694 27.9861 56.5417 23.4583C52.0139 18.9306 46.5 16.6667 40 16.6667C33.5 16.6667 27.9861 18.9306 23.4583 23.4583C18.9306 27.9861 16.6667 33.5 16.6667 40V43.3333H30V70ZM23.3333 50H16.6667V63.3333H23.3333V50ZM56.6667 50V63.3333H63.3333V50H56.6667Z" fill="#9D1945"/>
</g>
</svg>
