<svg width="80" height="80" viewBox="0 0 80 80" fill="none" xmlns="http://www.w3.org/2000/svg">
<mask id="mask0_4052_28" style="mask-type:alpha" maskUnits="userSpaceOnUse" x="0" y="0" width="80" height="80">
<rect width="80" height="80" fill="#D9D9D9"/>
</mask>
<g mask="url(#mask0_4052_28)">
<path d="M40 66.6667C37.3333 64.5556 34.4444 62.9167 31.3333 61.75C28.2222 60.5833 25 60 21.6666 60C19.3333 60 17.0416 60.3056 14.7916 60.9167C12.5416 61.5278 10.3889 62.3889 8.33331 63.5C7.16665 64.1111 6.04165 64.0833 4.95831 63.4167C3.87498 62.75 3.33331 61.7778 3.33331 60.5V20.3333C3.33331 19.7222 3.48609 19.1389 3.79165 18.5833C4.0972 18.0278 4.55554 17.6111 5.16665 17.3333C7.7222 16 10.3889 15 13.1666 14.3333C15.9444 13.6667 18.7778 13.3333 21.6666 13.3333C24.8889 13.3333 28.0416 13.75 31.125 14.5833C34.2083 15.4167 37.1666 16.6667 40 18.3333V58.6667C42.8333 56.8889 45.8055 55.5556 48.9166 54.6667C52.0278 53.7778 55.1666 53.3333 58.3333 53.3333C60.3333 53.3333 62.2917 53.5 64.2083 53.8333C66.125 54.1667 68.0555 54.6667 70 55.3333V15.3333C70.8333 15.6111 71.6528 15.9028 72.4583 16.2083C73.2639 16.5139 74.0555 16.8889 74.8333 17.3333C75.4444 17.6111 75.9028 18.0278 76.2083 18.5833C76.5139 19.1389 76.6666 19.7222 76.6666 20.3333V60.5C76.6666 61.7778 76.125 62.75 75.0417 63.4167C73.9583 64.0833 72.8333 64.1111 71.6666 63.5C69.6111 62.3889 67.4583 61.5278 65.2083 60.9167C62.9583 60.3056 60.6666 60 58.3333 60C55 60 51.7778 60.5833 48.6666 61.75C45.5555 62.9167 42.6666 64.5556 40 66.6667ZM46.6666 50V18.3333L63.3333 1.66667V35L46.6666 50ZM33.3333 55.4167V22.4167C31.5 21.6389 29.5972 21.0417 27.625 20.625C25.6528 20.2083 23.6666 20 21.6666 20C19.6111 20 17.6111 20.1944 15.6666 20.5833C13.7222 20.9722 11.8333 21.5556 9.99998 22.3333V55.4167C11.9444 54.6944 13.875 54.1667 15.7916 53.8333C17.7083 53.5 19.6666 53.3333 21.6666 53.3333C23.6666 53.3333 25.625 53.5 27.5416 53.8333C29.4583 54.1667 31.3889 54.6944 33.3333 55.4167Z" fill="#9D1945"/>
</g>
</svg>
