<svg width="80" height="80" viewBox="0 0 80 80" fill="none" xmlns="http://www.w3.org/2000/svg">
<mask id="mask0_4052_36" style="mask-type:alpha" maskUnits="userSpaceOnUse" x="0" y="0" width="80" height="80">
<rect width="80" height="80" fill="#D9D9D9"/>
</mask>
<g mask="url(#mask0_4052_36)">
<path d="M40 73.3333C35.4444 73.3333 31.1388 72.4583 27.0833 70.7083C23.0277 68.9583 19.4861 66.5694 16.4583 63.5417C13.4305 60.5139 11.0416 56.9722 9.29163 52.9167C7.54163 48.8611 6.66663 44.5556 6.66663 40C6.66663 35.3889 7.5694 31.0556 9.37496 27C11.1805 22.9444 13.625 19.4167 16.7083 16.4167C19.7916 13.4167 23.3888 11.0417 27.5 9.29167C31.6111 7.54167 36 6.66667 40.6666 6.66667C45.1111 6.66667 49.3055 7.43056 53.25 8.95834C57.1944 10.4861 60.6527 12.5972 63.625 15.2917C66.5972 17.9861 68.9583 21.1806 70.7083 24.875C72.4583 28.5694 73.3333 32.5556 73.3333 36.8333C73.3333 43.2222 71.3888 48.125 67.5 51.5417C63.6111 54.9583 58.8888 56.6667 53.3333 56.6667H47.1666C46.6666 56.6667 46.3194 56.8056 46.125 57.0833C45.9305 57.3611 45.8333 57.6667 45.8333 58C45.8333 58.6667 46.25 59.625 47.0833 60.875C47.9166 62.125 48.3333 63.5556 48.3333 65.1667C48.3333 67.9445 47.5694 70 46.0416 71.3333C44.5138 72.6667 42.5 73.3333 40 73.3333ZM21.6666 43.3333C23.1111 43.3333 24.3055 42.8611 25.25 41.9167C26.1944 40.9722 26.6666 39.7778 26.6666 38.3333C26.6666 36.8889 26.1944 35.6944 25.25 34.75C24.3055 33.8056 23.1111 33.3333 21.6666 33.3333C20.2222 33.3333 19.0277 33.8056 18.0833 34.75C17.1388 35.6944 16.6666 36.8889 16.6666 38.3333C16.6666 39.7778 17.1388 40.9722 18.0833 41.9167C19.0277 42.8611 20.2222 43.3333 21.6666 43.3333ZM31.6666 30C33.1111 30 34.3055 29.5278 35.25 28.5833C36.1944 27.6389 36.6666 26.4444 36.6666 25C36.6666 23.5556 36.1944 22.3611 35.25 21.4167C34.3055 20.4722 33.1111 20 31.6666 20C30.2222 20 29.0277 20.4722 28.0833 21.4167C27.1388 22.3611 26.6666 23.5556 26.6666 25C26.6666 26.4444 27.1388 27.6389 28.0833 28.5833C29.0277 29.5278 30.2222 30 31.6666 30ZM48.3333 30C49.7777 30 50.9722 29.5278 51.9166 28.5833C52.8611 27.6389 53.3333 26.4444 53.3333 25C53.3333 23.5556 52.8611 22.3611 51.9166 21.4167C50.9722 20.4722 49.7777 20 48.3333 20C46.8888 20 45.6944 20.4722 44.75 21.4167C43.8055 22.3611 43.3333 23.5556 43.3333 25C43.3333 26.4444 43.8055 27.6389 44.75 28.5833C45.6944 29.5278 46.8888 30 48.3333 30ZM58.3333 43.3333C59.7777 43.3333 60.9722 42.8611 61.9166 41.9167C62.8611 40.9722 63.3333 39.7778 63.3333 38.3333C63.3333 36.8889 62.8611 35.6944 61.9166 34.75C60.9722 33.8056 59.7777 33.3333 58.3333 33.3333C56.8888 33.3333 55.6944 33.8056 54.75 34.75C53.8055 35.6944 53.3333 36.8889 53.3333 38.3333C53.3333 39.7778 53.8055 40.9722 54.75 41.9167C55.6944 42.8611 56.8888 43.3333 58.3333 43.3333ZM40 66.6667C40.5 66.6667 40.9027 66.5278 41.2083 66.25C41.5138 65.9722 41.6666 65.6111 41.6666 65.1667C41.6666 64.3889 41.25 63.4722 40.4166 62.4167C39.5833 61.3611 39.1666 59.7778 39.1666 57.6667C39.1666 55.3333 39.9722 53.4722 41.5833 52.0833C43.1944 50.6944 45.1666 50 47.5 50H53.3333C57 50 60.1388 48.9306 62.75 46.7917C65.3611 44.6528 66.6666 41.3333 66.6666 36.8333C66.6666 30.1111 64.0972 24.5139 58.9583 20.0417C53.8194 15.5695 47.7222 13.3333 40.6666 13.3333C33.1111 13.3333 26.6666 15.9167 21.3333 21.0833C16 26.25 13.3333 32.5556 13.3333 40C13.3333 47.3889 15.9305 53.6806 21.125 58.875C26.3194 64.0694 32.6111 66.6667 40 66.6667Z" fill="#9D1945"/>
</g>
</svg>
